<svg xmlns="http://www.w3.org/2000/svg" viewBox="0 0 278.25 699.27"><title>loaderAsset 1</title><g id="Layer_2" data-name="Layer 2"><g id="Layer_2-2" data-name="Layer 2"><path d="M99.35,254c-5.15-9.37-8.73-19.11-8.35-30.09.49-14.52,11.9-28.83,26.38-32.28,10.74-2.56,21.41-2.07,31.14,3.37,8.19,4.57,11.47,12.81,13.39,21.58.41,1.88.51,3.83.74,5.75s.71,3.28,2.85,4.15a9.47,9.47,0,0,1,6.23,9.65,15.65,15.65,0,0,0,0,2.27c.21,1.64-.83,4.54,1.76,4.27,1.88-.19,4.89-2.39,5.07-4,.69-6.07,4.28-9.62,9.34-11.32,7.77-2.61,10.77-9.64,15.11-15.29,1.57-2,.86-5.81,1.21-8.79,1.19-10,3-19.77,7.15-29,1.18-2.62,2.93-5,4.24-7.56a9.34,9.34,0,0,0,.91-3.61c.71-11.43.79-22.93,2.21-34.27.79-6.38,3.46-12.6,5.84-18.67A29,29,0,0,0,227,98.67c-.18-7.58.07-15.18-.14-22.76a13.88,13.88,0,0,0-1.83-5.56c-2.28-4.5-4.94-8.81-7.12-13.35-2.59-5.37-4.86-10.89-7.2-16.37-.64-1.5-1-3.09-1.6-4.72,5.18-.88,9,1.76,10,6.46.85,3.76,3.38,6.14,6.42,8.35a63.68,63.68,0,0,0,.36-29,50.12,50.12,0,0,1-.86-10.55,5.32,5.32,0,0,1,1.57-3.35c1.35-1.4,2.9-1.53,3.73.7a33.41,33.41,0,0,1,1.12,3.69c1.4,5.71,2.75,11.44,4.21,17.14a8.93,8.93,0,0,0,1.41,2.26l1-.11c.39-3.45.8-6.89,1.16-10.34.5-4.72.7-9.48,1.52-14.13.38-2.19,1.89-4.17,3.28-7,3.64,5.6,1.19,10.73,1.8,15.53s1.21,9.68,1.81,14.53l1,.26A69.78,69.78,0,0,0,251,23c1-5,1.61-10,2.61-14.95.2-1,1.43-1.71,2.18-2.55.59,1,1.76,2,1.68,2.94-.78,8.47-1.8,16.9-2.69,25.36a13.66,13.66,0,0,0,.31,2.89c1.16-.21,2.78,0,3.43-.72,2.92-3.16,5.5-6.64,8.34-9.88,1.6-1.83,2.78-4.46,6.53-4.2C273,24,273,26,272.31,27.71a29.57,29.57,0,0,1-3.67,6c-3.23,4.33-6,8.55-6.94,14.3S258,59.2,255.81,64.66a49.08,49.08,0,0,0-3.55,18.61c0,12.66.45,25.42-.86,38-1.43,13.63-4.65,27.07-7.07,40.6a20.53,20.53,0,0,0-.45,3.81c.41,22.85.56,45.71,1.41,68.54a107.61,107.61,0,0,1-5.07,36.31C237,280.85,236,291.29,236,302c0,16.68-.65,33.35-.73,50,0,8.75.2,17.54.91,26.26.63,7.58,2.09,15.1,3.21,22.64,1.48,10,2.52,20.14,4.65,30a243.35,243.35,0,0,0,7.76,26.46c1.52,4.5,4.2,8.53,8.8,10.77a5.23,5.23,0,0,1,1.24,1c.13.13.15.39.45,1.25a56.26,56.26,0,0,1-6.06,1.25c-5.37.53-10.8.66-16.14,1.39-4.33.58-5.75,2.18-5.22,6.58,1.29,10.75,2.44,21.58,4.73,32.14,7,32.41,14.59,64.69,21.79,97,2.09,9.4,6,18.12,9.25,27.08A216.5,216.5,0,0,1,278,661c.71,3-.21,6.55-1,9.7a96.23,96.23,0,0,1-4.64,15.39c-3.36,7.81-10,11.48-18.23,12.65-15.42,2.21-29.22-2.55-42.14-10.24a119.75,119.75,0,0,1-38.75-36.76c-3.06-4.61-5.14-9.92-7.26-15.08a14.53,14.53,0,0,1,.21-11.06c1.67-4.28.9-6.2-2.46-9.44-3.73-3.62-7.4-7.33-10.75-11.29-4.07-4.79-9-5.38-14.31-3.18a59.22,59.22,0,0,0-10,5.86,4.77,4.77,0,0,0-1.65,3.28,77.41,77.41,0,0,0,2.41,25.94,17.26,17.26,0,0,0,2.66,5.1c1,1.43,2.6,2.24,2.07,4.62-.66,3-1.27,6-4.14,7.3-5.76,2.59-11.68,4.87-17.65,6.94a5.34,5.34,0,0,1-4.5-1c-1.74-1.63-3-1.24-4.85-.43-19,8.42-38,16.68-57.83,22.88-14.72,4.6-27.21-.41-38.64-8.72C-.79,668.08-.72,659.84.86,651.35,3.75,635.76,9.37,621.18,16.13,607c1-2.06.92-3.45-.89-5.06-2.84-2.51-5.13-5.66-8.11-8C.69,589-.47,582.07.62,575c1.74-11.23,4.56-22.3,6.84-33.46,3-14.62,6-29.24,8.79-43.9,1.63-8.54,3.16-17.11,4.22-25.72,3.27-26.56,13.62-51.15,20.8-76.62,2-7,3.33-14.19,4.78-21.34a4.45,4.45,0,0,0-1-3.51c-5.36-5.14-3.92-11.57-3.19-17.6,1.37-11.32,3.25-22.57,5-33.83,1.48-9.35,2.5-18.84,4.89-28,3.84-14.59,14.15-23.93,27.55-29.87C85.76,258.36,92.59,256.38,99.35,254ZM76,400.36c-.29,6.44.14,11.74-.92,16.72a134.34,134.34,0,0,1-6.58,22.47q-14.41,35.71-29.67,71.1c-5.26,12.25-9.34,24.69-10.13,38.07-.62,10.47-1.33,20.94-1.8,31.42a95.89,95.89,0,0,0,.55,10A2.66,2.66,0,0,0,29,588.86Q49.9,551,70.82,513.05c3.78-6.88,7.33-13.89,10.83-20.92.8-1.62.93-3.57,1.47-5.78l-11.6,1.1c1.1-2.58,1.78-4.5,2.7-6.28,2.63-5,6.42-9.74,7.83-15.09,3.37-12.73,5.69-25.73,8.3-38.66.62-3.07-.41-5.67-2.56-8.27-2.4-2.9-4-6.51-5.71-9.92-1-1.89-1.18-4.17-2.24-6C79.16,402.1,77.55,401.48,76,400.36Zm-65.88,187c.37-1.55,1.17-2.91.8-3.78a12.37,12.37,0,0,0-3.22-4.2c-.29-.26-2.66.92-2.63,1.36a7.74,7.74,0,0,0,1.38,4.1C7.23,585.88,8.67,586.41,10.12,587.36Z"/></g></g></svg>